<svg width="44" height="11" viewBox="0 0 44 11" fill="none" xmlns="http://www.w3.org/2000/svg">
<path d="M2.71705 10.2081H0.763085V0.900787H2.56674L5.52659 5.39836H5.59596L8.5558 0.900787H10.3595V10.2081H8.39394V4.66997H8.32457L6.3128 7.65293H4.80975L2.78642 4.71621H2.71705V10.2081ZM19.8508 3.30566V10.2081H17.8968V9.32941H17.8275C17.6348 9.66085 17.3765 9.91521 17.0528 10.0925C16.7368 10.2775 16.3668 10.37 15.9429 10.37C15.2569 10.37 14.7173 10.1503 14.3242 9.71095C13.9388 9.26389 13.7461 8.6434 13.7461 7.84949V3.30566H15.7001V7.39857C15.7001 7.74543 15.7926 8.02292 15.9775 8.23103C16.1625 8.43914 16.4053 8.5432 16.7059 8.5432C17.0682 8.5432 17.3573 8.43144 17.5731 8.20791C17.7889 7.97667 17.8968 7.66835 17.8968 7.28295V3.30566H19.8508ZM25.8479 10.37C25.1233 10.37 24.499 10.2043 23.9749 9.87282C23.4507 9.53367 23.0884 9.08276 22.888 8.52008L24.5183 7.82636C24.6262 8.11926 24.7958 8.3505 25.027 8.52008C25.2582 8.68194 25.5242 8.76288 25.8248 8.76288C26.1022 8.76288 26.3104 8.71663 26.4491 8.62413C26.5878 8.53164 26.6572 8.40446 26.6572 8.24259C26.6572 8.08073 26.5686 7.94584 26.3913 7.83793C26.2217 7.72231 25.9635 7.62596 25.6166 7.54888C24.7919 7.36389 24.1483 7.09411 23.6858 6.73955C23.231 6.38498 23.0037 5.91094 23.0037 5.31743C23.0037 4.87808 23.1154 4.49654 23.339 4.1728C23.5702 3.84136 23.8939 3.587 24.3102 3.40972C24.7264 3.23244 25.2081 3.14379 25.7554 3.14379C26.426 3.14379 27.0195 3.30952 27.5359 3.64096C28.0524 3.9724 28.4223 4.41946 28.6459 4.98214L27.0272 5.66429C26.8885 5.3791 26.7073 5.15557 26.4838 4.9937C26.2603 4.82412 26.029 4.73934 25.7901 4.73934C25.5357 4.73934 25.3392 4.78944 25.2004 4.88964C25.0694 4.98214 25.0039 5.10932 25.0039 5.27118C25.0039 5.44076 25.0925 5.5795 25.2698 5.68741C25.4548 5.79532 25.7862 5.90323 26.2641 6.01115C27.8597 6.358 28.6574 7.07484 28.6574 8.16166C28.6574 8.58559 28.5341 8.96714 28.2874 9.30629C28.0485 9.63773 27.7132 9.89594 27.2816 10.0809C26.8576 10.2736 26.3797 10.37 25.8479 10.37ZM33.9368 1.37482C33.9368 1.72939 33.8289 2.01073 33.6131 2.21884C33.4049 2.42696 33.1236 2.53101 32.769 2.53101C32.4222 2.53101 32.1447 2.42696 31.9366 2.21884C31.7362 2.01073 31.636 1.72939 31.636 1.37482C31.636 1.02797 31.7362 0.750483 31.9366 0.542369C32.1447 0.334254 32.4222 0.230197 32.769 0.230197C33.1236 0.230197 33.4049 0.334254 33.6131 0.542369C33.8289 0.750483 33.9368 1.02797 33.9368 1.37482ZM33.7634 3.30566V10.2081H31.8094V3.30566H33.7634ZM40.442 10.37C39.7328 10.37 39.1162 10.2235 38.5921 9.93063C38.0756 9.63773 37.6748 9.2215 37.3896 8.68194C37.1122 8.13468 36.9734 7.49492 36.9734 6.76267C36.9734 6.03042 37.1122 5.39066 37.3896 4.84339C37.6748 4.29613 38.0756 3.87605 38.5921 3.58315C39.1162 3.29025 39.7328 3.14379 40.442 3.14379C41.074 3.14379 41.6483 3.32879 42.1647 3.69877C42.6811 4.06875 43.0588 4.56976 43.2978 5.20181L41.4825 5.88396C41.3823 5.59877 41.2243 5.3791 41.0085 5.22494C40.8004 5.07078 40.5692 4.9937 40.3148 4.9937C39.9063 4.9937 39.5787 5.15557 39.332 5.4793C39.0931 5.79532 38.9736 6.22311 38.9736 6.76267C38.9736 7.30222 39.0931 7.73001 39.332 8.04604C39.5787 8.36206 39.9063 8.52008 40.3148 8.52008C40.5692 8.52008 40.8004 8.443 41.0085 8.28884C41.2243 8.12697 41.3823 7.9073 41.4825 7.62981L43.2978 8.31196C43.0588 8.94401 42.6811 9.44503 42.1647 9.81501C41.6483 10.185 41.074 10.37 40.442 10.37Z" fill="black"/>
</svg>
