<svg width="8" height="9" viewBox="0 0 8 9" fill="none" xmlns="http://www.w3.org/2000/svg">
<g clip-path="url(#clip0_2_78)">
<path d="M7.78378 0.810791H0V8.59457H7.78378V0.810791Z" fill="white" fill-opacity="0.01"/>
<path d="M3.08106 4.05402C3.70798 4.05402 4.21619 3.54581 4.21619 2.91889C4.21619 2.29197 3.70798 1.78375 3.08106 1.78375C2.45414 1.78375 1.94592 2.29197 1.94592 2.91889C1.94592 3.54581 2.45414 4.05402 3.08106 4.05402Z" stroke="#333333" stroke-width="0.648649" stroke-linecap="round" stroke-linejoin="round"/>
<path d="M5.28772 1.94592C5.61736 2.14456 5.83784 2.50598 5.83784 2.9189C5.83784 3.33181 5.61736 3.69324 5.28772 3.89187" stroke="#333333" stroke-width="0.648649" stroke-linecap="round" stroke-linejoin="round"/>
<path d="M0.648621 7.42699V7.62159H5.51349V7.42699C5.51349 6.70044 5.51349 6.33717 5.3721 6.05966C5.24772 5.81556 5.04925 5.61709 4.80515 5.49271C4.52764 5.35132 4.16436 5.35132 3.43781 5.35132H2.7243C1.99774 5.35132 1.63447 5.35132 1.35696 5.49271C1.11286 5.61709 0.914393 5.81556 0.790018 6.05966C0.648621 6.33717 0.648621 6.70044 0.648621 7.42699Z" stroke="#333333" stroke-width="0.648649" stroke-linecap="round" stroke-linejoin="round"/>
<path d="M7.1351 7.62162V7.42702C7.1351 6.70047 7.1351 6.3372 6.99371 6.05969C6.86933 5.81559 6.67086 5.61712 6.42676 5.49274" stroke="#333333" stroke-width="0.648649" stroke-linecap="round" stroke-linejoin="round"/>
</g>
<defs>
<clipPath id="clip0_2_78">
<rect width="7.78378" height="7.78378" fill="white" transform="translate(0 0.810791)"/>
</clipPath>
</defs>
</svg>
